<svg width="2213" height="510" viewBox="0 0 2213 510" fill="none" xmlns="http://www.w3.org/2000/svg">
<g clip-path="url(#clip0_114_3954)">
<path d="M419.29 233.989V303.569L418.64 317.729L417.97 325.319L416.96 333.029C416.32 337.959 415.27 342.859 413.85 347.619L412 353.769L409.78 360.249L408.43 363.749L404.9 371.749L400.28 380.969L395.76 388.989L389.27 398.929L388.03 400.579L382.33 407.429L376.41 413.889L374.03 416.609L366.79 423.979L364.98 425.619L357.62 431.629L351.39 436.189L346.8 439.349L341.67 442.639L333.2 447.459L328.38 449.859L320.11 453.489L312.5 456.379L301.24 459.839L294.25 461.499L284.98 463.199L281.54 463.639L259.83 465.049H96.82V420.129H257.53L272.76 418.999C276.85 418.699 280.96 418.089 284.96 417.199L287 416.749L298.68 413.279L300.3 412.669L310.28 408.199L315.12 405.649L325.17 399.449L326.84 398.259L335.28 391.389L337.72 389.139L344.77 381.829L347.04 379.179L354.03 369.819L356.35 366.239L361.93 356.209L364.3 351.229L368.21 341.489L369.75 336.879C371.26 332.339 372.39 327.649 373.12 322.929L373.83 316.929L374.37 310.529V188.309H258.46C241.42 188.679 225.51 191.919 211.26 197.959C197.49 204.049 184.63 213.089 174.12 224.069C166.59 231.809 160.04 241.509 153.49 254.599C149.08 264.509 146.37 275.299 144.1 285.499C142.98 292.749 142.1 301.869 141.74 309.939V321.699H158.2C160.39 321.699 162.61 321.609 164.8 321.439L177.1 320.499C180.44 320.239 183.8 319.779 187.08 319.119L189.23 318.689C192.27 318.079 195.31 317.279 198.26 316.289L202.18 314.979C205.95 313.729 209.65 312.149 213.18 310.309L217 308.299C221.83 305.779 226.44 302.789 230.73 299.419C233.67 297.119 236.49 294.609 239.13 291.969L244.92 286.179C247.85 283.249 250.58 280.069 253.03 276.719L254.56 274.649C256.8 271.589 258.87 268.369 260.73 265.069L263.13 261.019C265.69 256.709 267.98 252.189 269.93 247.569L271.23 244.529C272.04 242.929 272.8 241.289 273.5 239.649L277.7 229.719H320.25L316.47 244.479C314.27 253.049 311.54 261.569 308.35 269.809C306.81 273.799 305.02 277.729 303.03 281.509C299.53 288.149 295.58 294.639 291.27 300.789C287.91 305.599 284.18 310.219 280.21 314.529L276.26 318.789L267.94 327.099L258.88 334.499L247.3 342.749L237.5 348.419L225.53 354.409L220.25 356.669L208.22 360.989L205.83 361.689L194.49 364.279L190.2 364.989L170.52 367.419L143.89 368.229H121.3L0 367.399V204.649C0.21 202.169 0.4 199.459 0.58 196.689C0.9 191.939 1.23 187.029 1.7 182.619C2.26 178.249 3.25 173.339 4.13 168.999L4.51 167.139C9.37 148.389 16.37 132.179 25.31 118.959C33.07 107.729 41.09 98.2492 49.85 89.9792C56.71 83.3992 64.64 77.7292 71.63 72.7292C89.24 60.6892 109.81 52.2292 132.84 47.5392C141.4 45.7492 150.21 45.5092 158.73 45.2792C161.76 45.1992 164.89 45.1092 167.91 44.9592H168.09L320.86 44.9492V89.8592L155.02 90.6492L144.25 91.4692C134.72 92.9192 127.75 94.5792 121.65 96.8392C106.55 102.579 94.53 109.649 85.96 117.859L85.8 117.999C76.47 125.899 69.13 133.949 64.01 141.909C58.59 150.669 53.97 160.179 50.68 169.369C47.69 178.449 46 186.219 45.56 193.039C45.27 197.729 44.96 203.399 44.67 208.809C44.47 212.359 44.29 215.799 44.11 218.789V321.699H96.24L97.65 301.349C98.05 298.559 98.45 295.309 98.89 291.869C100.71 277.389 102.97 259.379 107.06 248.709C114.49 227.829 127.15 208.249 144.66 190.589C157.05 177.379 171.39 166.579 187.22 158.559C208.16 147.959 229.95 142.579 252 142.579H418.45L419.29 233.989Z" fill="#A8E250"/>
</g>
<path d="M638.824 415.646C597.029 415.646 565.428 396.278 547.589 361.619V408.001H507.833V51.2154H551.666V190.871C570.015 160.799 600.087 144.489 638.824 144.489C707.633 144.489 753.505 197.497 753.505 280.068C753.505 362.638 707.633 415.646 638.824 415.646ZM631.179 376.909C678.58 376.909 708.142 338.682 708.142 280.068C708.142 221.453 678.58 183.226 631.179 183.226C583.267 183.226 550.647 221.453 550.647 280.068C550.647 338.682 583.267 376.909 631.179 376.909Z" fill="#0B241E"/>
<path d="M795.531 408.001V152.135H839.364V408.001H795.531ZM817.448 96.0684C801.137 96.0684 788.905 84.8552 788.905 69.0547C788.905 53.7639 801.137 41.5312 817.448 41.5312C833.248 41.5312 845.481 53.7639 845.481 69.0547C845.481 84.8552 833.248 96.0684 817.448 96.0684Z" fill="#0B241E"/>
<path d="M996.569 408.001C944.58 408.001 919.605 380.477 919.605 335.115V190.871H873.223V152.135H901.256C914.508 152.135 921.644 144.999 921.644 131.747V71.6032H962.419V152.135H1014.41V190.871H962.929V353.973C962.929 365.187 967.516 369.264 978.73 369.264H1022.05V408.001H996.569Z" fill="#0B241E"/>
<path d="M1167.89 509.939C1092.96 509.939 1056.27 462.028 1051.17 414.117H1092.45C1098.57 448.267 1121.51 473.751 1167.89 473.751C1216.82 473.751 1246.38 444.189 1246.38 392.71V353.464C1228.03 382.516 1197.96 398.317 1159.22 398.317C1090.93 398.317 1045.56 348.367 1045.56 271.403C1045.56 194.949 1090.93 144.489 1159.22 144.489C1200.51 144.489 1231.6 162.329 1249.44 194.439V152.135H1286.65V384.045C1286.65 460.499 1243.83 509.939 1167.89 509.939ZM1165.34 362.128C1213.25 362.128 1246.38 325.94 1246.38 271.403C1246.38 216.866 1213.25 181.187 1165.34 181.187C1117.43 181.187 1087.36 216.866 1087.36 271.403C1087.36 325.94 1117.43 362.128 1165.34 362.128Z" fill="#0B241E"/>
<path d="M1340.05 201.065C1340.05 169.464 1357.38 152.135 1387.46 152.135H1467.99V190.871H1383.89V408.001H1340.05V201.065Z" fill="#0B241E"/>
<path d="M1567.3 415.646C1511.24 415.646 1478.62 382.006 1478.62 336.644C1478.62 291.791 1509.71 263.758 1569.34 259.68L1634.58 255.093C1646.81 254.073 1652.93 248.976 1652.93 232.157C1652.93 195.968 1625.92 182.207 1592.79 182.207C1555.07 182.207 1532.64 200.046 1528.57 232.157H1485.75C1493.4 174.052 1532.13 144.489 1593.81 144.489C1657.52 144.489 1697.78 176.09 1697.78 247.957V369.264H1718.17V408.001H1699.31C1673.83 408.001 1659.05 392.2 1659.05 363.148V359.58C1643.76 395.258 1611.14 415.646 1567.3 415.646ZM1573.42 378.439C1619.8 378.439 1654.46 346.838 1654.46 295.359V286.694L1574.95 291.791C1537.74 294.339 1523.47 309.12 1523.47 334.605C1523.47 364.677 1542.84 378.439 1573.42 378.439Z" fill="#0B241E"/>
<path d="M1880.54 263.248C1930.49 272.422 1958.01 296.888 1958.01 337.663C1958.01 385.065 1918.25 415.646 1854.54 415.646C1784.71 415.646 1742.41 379.458 1740.88 325.43H1781.66C1785.73 357.031 1808.16 378.439 1854.03 378.439C1890.73 378.439 1913.67 364.167 1913.67 336.644C1913.67 315.746 1899.9 305.043 1868.81 299.436L1830.08 292.81C1776.05 283.636 1748.53 260.699 1748.53 221.453C1748.53 177.619 1783.69 144.489 1845.88 144.489C1906.53 144.489 1946.29 176.6 1949.85 229.608H1907.55C1904.49 200.556 1883.59 181.187 1844.86 181.187C1809.18 181.187 1792.36 197.497 1792.36 219.414C1792.36 238.783 1805.1 249.996 1840.78 256.112L1880.54 263.248Z" fill="#0B241E"/>
<path d="M2121.45 263.248C2171.4 272.422 2198.92 296.888 2198.92 337.663C2198.92 385.065 2159.16 415.646 2095.45 415.646C2025.62 415.646 1983.32 379.458 1981.79 325.43H2022.57C2026.64 357.031 2049.07 378.439 2094.94 378.439C2131.64 378.439 2154.58 364.167 2154.58 336.644C2154.58 315.746 2140.81 305.043 2109.72 299.436L2070.99 292.81C2016.96 283.636 1989.44 260.699 1989.44 221.453C1989.44 177.619 2024.6 144.489 2086.79 144.489C2147.44 144.489 2187.2 176.6 2190.76 229.608H2148.46C2145.4 200.556 2124.5 181.187 2085.77 181.187C2050.09 181.187 2033.27 197.497 2033.27 219.414C2033.27 238.783 2046.01 249.996 2081.69 256.112L2121.45 263.248Z" fill="#0B241E"/>
<defs>
<clipPath id="clip0_114_3954">
<rect width="419.29" height="420.1" fill="white" transform="translate(0 44.9492)"/>
</clipPath>
</defs>
</svg>
