<svg width="420" height="421" viewBox="0 0 420 421" fill="none" xmlns="http://www.w3.org/2000/svg">
<path d="M419.29 189.04V258.62L418.64 272.78L417.97 280.37L416.96 288.08C416.32 293.01 415.27 297.91 413.85 302.67L412 308.82L409.78 315.3L408.43 318.8L404.9 326.8L400.28 336.02L395.76 344.04L389.27 353.98L388.03 355.63L382.33 362.48L376.41 368.94L374.03 371.66L366.79 379.03L364.98 380.67L357.62 386.68L351.39 391.24L346.8 394.4L341.67 397.69L333.2 402.51L328.38 404.91L320.11 408.54L312.5 411.43L301.24 414.89L294.25 416.55L284.98 418.25L281.54 418.69L259.83 420.1H96.82V375.18H257.53L272.76 374.05C276.85 373.75 280.96 373.14 284.96 372.25L287 371.8L298.68 368.33L300.3 367.72L310.28 363.25L315.12 360.7L325.17 354.5L326.84 353.31L335.28 346.44L337.72 344.19L344.77 336.88L347.04 334.23L354.03 324.87L356.35 321.29L361.93 311.26L364.3 306.28L368.21 296.54L369.75 291.93C371.26 287.39 372.39 282.7 373.12 277.98L373.83 271.98L374.37 265.58V143.36H258.46C241.42 143.73 225.51 146.97 211.26 153.01C197.49 159.1 184.63 168.14 174.12 179.12C166.59 186.86 160.04 196.56 153.49 209.65C149.08 219.56 146.37 230.35 144.1 240.55C142.98 247.8 142.1 256.92 141.74 264.99V276.75H158.2C160.39 276.75 162.61 276.66 164.8 276.49L177.1 275.55C180.44 275.29 183.8 274.83 187.08 274.17L189.23 273.74C192.27 273.13 195.31 272.33 198.26 271.34L202.18 270.03C205.95 268.78 209.65 267.2 213.18 265.36L217 263.35C221.83 260.83 226.44 257.84 230.73 254.47C233.67 252.17 236.49 249.66 239.13 247.02L244.92 241.23C247.85 238.3 250.58 235.12 253.03 231.77L254.56 229.7C256.8 226.64 258.87 223.42 260.73 220.12L263.13 216.07C265.69 211.76 267.98 207.24 269.93 202.62L271.23 199.58C272.04 197.98 272.8 196.34 273.5 194.7L277.7 184.77H320.25L316.47 199.53C314.27 208.1 311.54 216.62 308.35 224.86C306.81 228.85 305.02 232.78 303.03 236.56C299.53 243.2 295.58 249.69 291.27 255.84C287.91 260.65 284.18 265.27 280.21 269.58L276.26 273.84L267.94 282.15L258.88 289.55L247.3 297.8L237.5 303.47L225.53 309.46L220.25 311.72L208.22 316.04L205.83 316.74L194.49 319.33L190.2 320.04L170.52 322.47L143.89 323.28H121.3L0 322.45V159.7C0.21 157.22 0.4 154.51 0.58 151.74C0.9 146.99 1.23 142.08 1.7 137.67C2.26 133.3 3.25 128.39 4.13 124.05L4.51 122.19C9.37 103.44 16.37 87.23 25.31 74.01C33.07 62.78 41.09 53.3 49.85 45.03C56.71 38.45 64.64 32.78 71.63 27.78C89.24 15.74 109.81 7.28 132.84 2.59C141.4 0.8 150.21 0.56 158.73 0.33C161.76 0.25 164.89 0.16 167.91 0.01H168.09L320.86 0V44.91L155.02 45.7L144.25 46.52C134.72 47.97 127.75 49.63 121.65 51.89C106.55 57.63 94.53 64.7 85.96 72.91L85.8 73.05C76.47 80.95 69.13 89 64.01 96.96C58.59 105.72 53.97 115.23 50.68 124.42C47.69 133.5 46 141.27 45.56 148.09C45.27 152.78 44.96 158.45 44.67 163.86C44.47 167.41 44.29 170.85 44.11 173.84V276.75H96.24L97.65 256.4C98.05 253.61 98.45 250.36 98.89 246.92C100.71 232.44 102.97 214.43 107.06 203.76C114.49 182.88 127.15 163.3 144.66 145.64C157.05 132.43 171.39 121.63 187.22 113.61C208.16 103.01 229.95 97.63 252 97.63H418.45L419.29 189.04Z" fill="#A8E250"/>
</svg>
