<svg width="1074" height="1074" viewBox="0 0 1074 1074" fill="none" xmlns="http://www.w3.org/2000/svg">
<rect x="0.5" y="0.169922" width="1073" height="1073" rx="536.5" fill="#0F382B"/>
<path d="M809.879 508.146V599.024L809.032 617.509L808.164 627.439L808.142 627.481L806.83 637.539C805.983 644.018 804.606 650.455 802.743 656.701L800.329 664.726V664.769L797.429 673.217L795.65 677.812V677.854L791.034 688.293L784.978 700.383L779.071 710.864V710.906L770.58 723.886L770.538 723.928L768.928 726.067H768.907V726.109L761.454 735.044L761.433 735.066L753.726 743.493L750.592 747.05L741.127 756.684L741.106 756.726L738.735 758.865L729.122 766.742H729.101L720.97 772.713H720.949L714.956 776.842H714.935L708.223 781.161H708.202L697.149 787.471H697.107L690.818 790.626H690.776L679.998 795.369L679.977 795.39L670.047 799.159H670.026L670.004 799.18L655.289 803.69H655.267V803.711L646.141 805.871H646.099L634.009 808.094H633.966L629.478 808.687H629.435L601.084 810.529H387.44V750.417H597.95L617.811 748.934C623.104 748.553 628.44 747.749 633.628 746.605L636.274 746.012L651.456 741.502L653.552 740.719L666.511 734.896L672.778 731.593L685.864 723.547L688.002 722.001L698.991 713.066L702.146 710.165L711.314 700.637L714.236 697.249L723.341 685.053L726.327 680.437L733.611 667.352L736.66 660.915L741.762 648.211L743.774 642.24L744.473 640.016C746.082 634.85 747.31 629.514 748.136 624.178L749.067 616.344L749.766 608.044V449.261H599.199L597.124 449.325C575.76 450.024 555.793 454.216 537.858 461.817C519.988 469.715 503.282 481.467 489.625 495.717C484.733 500.735 480.181 506.388 475.756 512.931C471.351 519.453 467.074 526.863 462.818 535.375C457.102 548.228 453.587 562.245 450.622 575.542C449.182 584.986 448.039 596.843 447.552 607.345V621.913H468.302C471.14 621.913 474.019 621.807 476.878 621.574L492.928 620.346L494.558 620.219C498.348 619.859 502.138 619.308 505.865 618.567L508.66 617.996C512.619 617.212 516.558 616.175 520.369 614.883L525.493 613.189C530.363 611.559 535.169 609.505 539.743 607.133L544.719 604.508C550.986 601.247 556.978 597.351 562.526 592.989C566.337 590.004 570 586.743 573.431 583.334L580.99 575.754C584.78 571.964 588.337 567.856 591.513 563.494L593.503 560.805C596.404 556.824 599.093 552.653 601.507 548.376L604.641 543.061C607.965 537.471 610.951 531.606 613.47 525.593H613.491C616.893 517.656 620.45 509.798 623.803 501.836H680.803C676.483 519.115 672.083 536.475 665.791 553.161L665.007 555.194C662.996 560.424 660.646 565.569 658.02 570.545C653.446 579.226 648.28 587.738 642.627 595.784C638.222 602.094 633.331 608.15 628.123 613.803L622.977 619.351V619.393L612.094 630.234H612.052L612.03 630.276L600.215 639.932L600.173 639.974L585.055 650.73H585.034L584.991 650.773L572.202 658.183H572.181L556.534 666.018H556.513V666.039L549.61 668.982L549.589 669.003L533.878 674.636H533.857L533.835 674.657L530.723 675.567H530.681L515.859 678.955H515.817L510.227 679.908H510.184L484.5 683.084H484.437L449.67 684.143H420.153L261.074 683.063V469.8C261.349 466.56 261.604 463.024 261.836 459.425C262.26 453.221 262.683 446.805 263.297 441.025C264.039 435.265 265.33 428.829 266.474 423.175L266.982 420.74V420.698C273.143 396.941 281.952 376.254 293.153 359.23L294.254 357.579C304.396 342.884 314.898 330.455 326.374 319.635C335.373 310.996 345.77 303.564 354.895 297.043C366.435 289.145 378.949 282.433 392.331 276.928C405.734 271.401 420.005 267.103 435.081 264.033L437.177 263.63C447.764 261.64 458.584 261.365 469.001 261.068L474.993 260.899C477.005 260.835 478.995 260.751 480.964 260.666H681.417V320.757L464.216 321.774L450.199 322.854C437.812 324.738 428.771 326.898 420.873 329.82C411.048 333.567 402.24 337.718 394.512 342.27C386.762 346.822 380.092 351.777 374.545 357.092H374.524L374.312 357.303H374.291C362.158 367.594 352.63 378.054 346.002 388.365C338.952 399.757 332.938 412.122 328.661 424.043C324.786 435.858 322.605 445.937 322.034 454.745C321.653 460.865 321.25 468.275 320.869 475.326C320.615 479.942 320.382 484.431 320.128 488.327V621.913H386.762L388.541 596.038L388.562 595.996C389.07 592.354 389.599 588.119 390.171 583.63C392.543 564.764 395.507 541.135 400.885 527.117C410.625 499.74 427.204 474.098 450.135 450.976C466.354 433.677 485.136 419.533 505.886 409.031C533.306 395.141 561.87 388.09 590.772 388.09H809.879L809.9 508.146H809.879Z" fill="url(#paint0_linear_332_9196)"/>
<defs>
<linearGradient id="paint0_linear_332_9196" x1="535.487" y1="260.666" x2="535.487" y2="810.529" gradientUnits="userSpaceOnUse">
<stop stop-color="#B9E97D"/>
<stop offset="1" stop-color="#D7FFA6"/>
</linearGradient>
</defs>
</svg>
