<svg width="355" height="82" viewBox="0 0 355 82" fill="none" xmlns="http://www.w3.org/2000/svg">
<g clip-path="url(#clip0_188_5165)">
<path d="M66.6664 37.2035V48.2666L66.563 50.518L66.4565 51.7248L66.2959 52.9507C66.1941 53.7345 66.0272 54.5136 65.8014 55.2705L65.5073 56.2483L65.1543 57.2786L64.9396 57.8351L64.3784 59.1071L63.6438 60.5731L62.9251 61.8482L61.8932 63.4287L61.6961 63.691L60.7898 64.7802L59.8485 65.8073L59.4701 66.2398L58.319 67.4116L58.0312 67.6723L56.8609 68.6279L55.8704 69.3529L55.1406 69.8554L54.3249 70.3785L52.9782 71.1448L52.2118 71.5264L50.8969 72.1036L49.6869 72.5631L47.8966 73.1132L46.7852 73.3772L45.3113 73.6475L44.7644 73.7174L41.3125 73.9416H15.3942V66.7994H40.9468L43.3684 66.6198C44.0187 66.5721 44.6721 66.4751 45.3081 66.3336L45.6325 66.262L47.4896 65.7103L47.7472 65.6133L49.334 64.9026L50.1035 64.4971L51.7015 63.5113L51.967 63.3221L53.3089 62.2298L53.6969 61.8721L54.8178 60.7098L55.1787 60.2885L56.2901 58.8002L56.659 58.231L57.5462 56.6363L57.923 55.8445L58.5447 54.2958L58.7896 53.5628C59.0297 52.841 59.2093 52.0953 59.3254 51.3448L59.4383 50.3908L59.5242 49.3732V29.9405H41.0947C38.3853 29.9993 35.8557 30.5144 33.59 31.4748C31.4006 32.4431 29.3558 33.8804 27.6848 35.6262C26.4875 36.8569 25.4461 38.3992 24.4046 40.4805C23.7035 42.0561 23.2726 43.7717 22.9116 45.3935C22.7336 46.5462 22.5936 47.9963 22.5364 49.2794V51.1492H25.1535C25.5017 51.1492 25.8547 51.1349 26.2029 51.1079L28.1586 50.9584C28.6896 50.9171 29.2239 50.844 29.7454 50.739L30.0872 50.6706C30.5706 50.5737 31.0539 50.4465 31.523 50.2891L32.1463 50.0808C32.7457 49.882 33.334 49.6308 33.8952 49.3382L34.5026 49.0187C35.2706 48.618 36.0036 48.1426 36.6857 47.6068C37.1531 47.2411 37.6015 46.842 38.0212 46.4222L38.9418 45.5016C39.4077 45.0358 39.8418 44.5301 40.2313 43.9975L40.4746 43.6684C40.8307 43.1818 41.1599 42.6699 41.4556 42.1452L41.8372 41.5012C42.2442 40.8159 42.6083 40.0973 42.9184 39.3627L43.1251 38.8793C43.2539 38.6249 43.3747 38.3642 43.486 38.1034L44.1538 36.5246H50.9192L50.3182 38.8714C49.9684 40.234 49.5343 41.5887 49.0271 42.8988C48.7822 43.5332 48.4976 44.1581 48.1812 44.7591C47.6247 45.8148 46.9967 46.8467 46.3114 47.8246C45.7772 48.5894 45.1841 49.3239 44.5529 50.0092L43.9248 50.6866L42.602 52.0078L41.1615 53.1844L39.3203 54.4961L37.7621 55.3977L35.8589 56.3501L35.0194 56.7094L33.1066 57.3963L32.7266 57.5076L30.9236 57.9194L30.2415 58.0323L27.1124 58.4186L22.8783 58.5474H19.2865L0 58.4155V32.5385C0.0333896 32.1442 0.0635993 31.7133 0.092219 31.2729C0.143098 30.5176 0.195568 29.7369 0.270297 29.0358C0.359336 28.3409 0.516744 27.5603 0.656663 26.8702L0.717082 26.5745C1.48981 23.5933 2.6028 21.0159 4.02424 18.9139C5.25807 17.1284 6.53324 15.6211 7.92606 14.3062C9.01679 13.26 10.2776 12.3584 11.389 11.5635C14.189 9.64912 17.4596 8.30399 21.1213 7.55829C22.4823 7.27368 23.8831 7.23552 25.2378 7.19895C25.7195 7.18623 26.2172 7.17192 26.6974 7.14807H26.726L51.0162 7.14648V14.2871L24.6479 14.4127L22.9355 14.5431C21.4202 14.7736 20.312 15.0376 19.3421 15.3969C16.9413 16.3096 15.0301 17.4337 13.6675 18.739L13.642 18.7613C12.1586 20.0174 10.9915 21.2973 10.1775 22.5629C9.31571 23.9558 8.58113 25.4678 8.05803 26.929C7.58262 28.3727 7.31392 29.6082 7.24396 30.6925C7.19785 31.4382 7.14856 32.3397 7.10245 33.1999C7.07065 33.7644 7.04203 34.3113 7.01341 34.7867V51.1492H15.302L15.5262 47.9136C15.5898 47.47 15.6534 46.9533 15.7233 46.4063C16.0127 44.104 16.372 41.2405 17.0223 39.544C18.2037 36.2241 20.2166 33.1109 23.0007 30.303C24.9707 28.2026 27.2507 26.4854 29.7676 25.2103C33.0971 23.5249 36.5616 22.6695 40.0675 22.6695H66.5328L66.6664 37.2035Z" fill="#9FE870"/>
</g>
<path d="M104.032 66.0871C97.3871 66.0871 92.3626 63.0076 89.5262 57.4968V64.8715H83.2051V8.14328H90.1745V30.3483C93.092 25.567 97.8734 22.9737 104.032 22.9737C114.973 22.9737 122.267 31.4019 122.267 44.5304C122.267 57.6589 114.973 66.0871 104.032 66.0871ZM102.817 59.928C110.354 59.928 115.054 53.85 115.054 44.5304C115.054 35.2107 110.354 29.1327 102.817 29.1327C95.199 29.1327 90.0125 35.2107 90.0125 44.5304C90.0125 53.85 95.199 59.928 102.817 59.928Z" fill="#0C382B"/>
<path d="M128.949 64.8715V24.1893H135.918V64.8715H128.949ZM132.433 15.2748C129.84 15.2748 127.895 13.4919 127.895 10.9797C127.895 8.54848 129.84 6.60352 132.433 6.60352C134.946 6.60352 136.89 8.54848 136.89 10.9797C136.89 13.4919 134.946 15.2748 132.433 15.2748Z" fill="#0C382B"/>
<path d="M160.913 64.8715C152.647 64.8715 148.676 60.4953 148.676 53.2827V30.3483H141.301V24.1893H145.759C147.866 24.1893 149 23.0547 149 20.9477V11.3849H155.484V24.1893H163.75V30.3483H155.565V56.2812C155.565 58.0641 156.294 58.7124 158.077 58.7124H164.965V64.8715H160.913Z" fill="#0C382B"/>
<path d="M188.153 81.0796C176.24 81.0796 170.405 73.4618 169.595 65.844H176.159C177.131 71.2737 180.778 75.3257 188.153 75.3257C195.933 75.3257 200.633 70.6254 200.633 62.4403V56.2002C197.716 60.8195 192.934 63.3317 186.775 63.3317C175.916 63.3317 168.703 55.3898 168.703 43.1527C168.703 30.9967 175.916 22.9737 186.775 22.9737C193.34 22.9737 198.283 25.8101 201.119 30.9156V24.1893H207.035V61.0626C207.035 73.2187 200.228 81.0796 188.153 81.0796ZM187.748 57.5779C195.366 57.5779 200.633 51.824 200.633 43.1527C200.633 34.4814 195.366 28.8086 187.748 28.8086C180.13 28.8086 175.349 34.4814 175.349 43.1527C175.349 51.824 180.13 57.5779 187.748 57.5779Z" fill="#0C382B"/>
<path d="M215.527 31.9691C215.527 26.9446 218.282 24.1893 223.064 24.1893H235.868V30.3483H222.496V64.8715H215.527V31.9691Z" fill="#0C382B"/>
<path d="M251.659 66.0871C242.744 66.0871 237.558 60.7384 237.558 53.5259C237.558 46.3943 242.501 41.9371 251.983 41.2888L262.356 40.5594C264.301 40.3973 265.274 39.5869 265.274 36.9126C265.274 31.1587 260.978 28.9706 255.711 28.9706C249.714 28.9706 246.148 31.8071 245.5 36.9126H238.692C239.908 27.674 246.067 22.9737 255.873 22.9737C266.003 22.9737 272.405 27.9982 272.405 39.4248V58.7124H275.647V64.8715H272.648C268.596 64.8715 266.246 62.3593 266.246 57.74V57.1727C263.815 62.8455 258.628 66.0871 251.659 66.0871ZM252.631 60.1712C260.006 60.1712 265.517 55.1467 265.517 46.9616V45.5839L252.874 46.3943C246.958 46.7995 244.689 49.1497 244.689 53.2017C244.689 57.9831 247.769 60.1712 252.631 60.1712Z" fill="#0C382B"/>
<path d="M301.462 41.8561C309.404 43.3148 313.781 47.2047 313.781 53.6879C313.781 61.2247 307.459 66.0871 297.329 66.0871C286.227 66.0871 279.501 60.3332 279.257 51.743H285.741C286.389 56.7675 289.955 60.1712 297.248 60.1712C303.083 60.1712 306.73 57.902 306.73 53.5259C306.73 50.2032 304.542 48.5014 299.599 47.6099L293.439 46.5564C284.849 45.0977 280.473 41.4509 280.473 35.2107C280.473 28.2413 286.065 22.9737 295.952 22.9737C305.596 22.9737 311.917 28.0792 312.484 36.5074H305.758C305.271 31.8881 301.949 28.8086 295.79 28.8086C290.117 28.8086 287.443 31.4019 287.443 34.8866C287.443 37.9661 289.469 39.749 295.141 40.7215L301.462 41.8561Z" fill="#0C382B"/>
<path d="M339.767 41.8561C347.709 43.3148 352.085 47.2047 352.085 53.6879C352.085 61.2247 345.764 66.0871 335.634 66.0871C324.531 66.0871 317.805 60.3332 317.562 51.743H324.045C324.693 56.7675 328.259 60.1712 335.553 60.1712C341.388 60.1712 345.034 57.902 345.034 53.5259C345.034 50.2032 342.846 48.5014 337.903 47.6099L331.744 46.5564C323.153 45.0977 318.777 41.4509 318.777 35.2107C318.777 28.2413 324.369 22.9737 334.256 22.9737C343.9 22.9737 350.221 28.0792 350.788 36.5074H344.062C343.576 31.8881 340.253 28.8086 334.094 28.8086C328.421 28.8086 325.747 31.4019 325.747 34.8866C325.747 37.9661 327.773 39.749 333.446 40.7215L339.767 41.8561Z" fill="#0C382B"/>
<defs>
<clipPath id="clip0_188_5165">
<rect width="66.6664" height="66.7951" fill="white" transform="translate(0 7.14648)"/>
</clipPath>
</defs>
</svg>
