<svg width="355" height="82" viewBox="0 0 355 82" fill="none" xmlns="http://www.w3.org/2000/svg">
<g clip-path="url(#clip0_188_5147)">
<path d="M66.6664 37.2523V48.3154L66.563 50.5668L66.4565 51.7736L66.2959 52.9995C66.1941 53.7834 66.0272 54.5625 65.8014 55.3193L65.5073 56.2971L65.1543 57.3274L64.9396 57.8839L64.3784 59.1559L63.6438 60.6219L62.9251 61.8971L61.8932 63.4775L61.6961 63.7398L60.7898 64.829L59.8485 65.8561L59.4701 66.2886L58.319 67.4604L58.0312 67.7212L56.8609 68.6767L55.8704 69.4018L55.1406 69.9042L54.3249 70.4273L52.9782 71.1937L52.2118 71.5753L50.8969 72.1524L49.6869 72.6119L47.8966 73.1621L46.7852 73.426L45.3113 73.6963L44.7644 73.7663L41.3125 73.9905H15.3942V66.8483H40.9468L43.3684 66.6686C44.0187 66.6209 44.6721 66.5239 45.3081 66.3824L45.6325 66.3108L47.4896 65.7591L47.7472 65.6621L49.334 64.9514L50.1035 64.546L51.7015 63.5602L51.967 63.371L53.3089 62.2786L53.6969 61.9209L54.8178 60.7586L55.1787 60.3373L56.2901 58.8491L56.659 58.2798L57.5462 56.6851L57.923 55.8933L58.5447 54.3446L58.7896 53.6117C59.0297 52.8898 59.2093 52.1441 59.3254 51.3936L59.4383 50.4396L59.5242 49.4221V29.9893H41.0947C38.3853 30.0481 35.8557 30.5633 33.59 31.5236C31.4006 32.4919 29.3558 33.9293 27.6848 35.6751C26.4875 36.9057 25.4461 38.448 24.4046 40.5293C23.7035 42.105 23.2726 43.8205 22.9116 45.4423C22.7336 46.5951 22.5936 48.0451 22.5364 49.3282V51.1981H25.1535C25.5017 51.1981 25.8547 51.1838 26.2029 51.1567L28.1586 51.0073C28.6896 50.9659 29.2239 50.8928 29.7454 50.7878L30.0872 50.7195C30.5706 50.6225 31.0539 50.4953 31.523 50.3379L32.1463 50.1296C32.7457 49.9308 33.334 49.6796 33.8952 49.3871L34.5026 49.0675C35.2706 48.6668 36.0036 48.1914 36.6857 47.6556C37.1531 47.2899 37.6015 46.8908 38.0212 46.471L38.9418 45.5504C39.4077 45.0846 39.8418 44.579 40.2313 44.0463L40.4746 43.7172C40.8307 43.2307 41.1599 42.7187 41.4556 42.194L41.8372 41.5501C42.2442 40.8648 42.6083 40.1461 42.9184 39.4115L43.1251 38.9282C43.2539 38.6738 43.3747 38.413 43.486 38.1523L44.1538 36.5734H50.9192L50.3182 38.9202C49.9684 40.2828 49.5343 41.6375 49.0271 42.9476C48.7822 43.5821 48.4976 44.2069 48.1812 44.8079C47.6247 45.8637 46.9967 46.8956 46.3114 47.8734C45.7772 48.6382 45.1841 49.3728 44.5529 50.058L43.9248 50.7354L42.602 52.0567L41.1615 53.2332L39.3203 54.545L37.7621 55.4465L35.8589 56.3989L35.0194 56.7582L33.1066 57.4451L32.7266 57.5564L30.9236 57.9682L30.2415 58.0811L27.1124 58.4675L22.8783 58.5962H19.2865L0 58.4643V32.5873C0.0333896 32.193 0.0635993 31.7621 0.092219 31.3217C0.143098 30.5665 0.195568 29.7858 0.270297 29.0846C0.359336 28.3898 0.516744 27.6091 0.656663 26.919L0.717082 26.6233C1.48981 23.6421 2.6028 21.0647 4.02424 18.9628C5.25807 17.1772 6.53324 15.6699 7.92606 14.355C9.01679 13.3088 10.2776 12.4073 11.389 11.6123C14.189 9.69794 17.4596 8.35282 21.1213 7.60712C22.4823 7.32251 23.8831 7.28435 25.2378 7.24778C25.7195 7.23506 26.2172 7.22075 26.6974 7.1969H26.726L51.0162 7.19531V14.3359L24.6479 14.4615L22.9355 14.5919C21.4202 14.8225 20.312 15.0864 19.3421 15.4457C16.9413 16.3584 15.0301 17.4825 13.6675 18.7879L13.642 18.8101C12.1586 20.0662 10.9915 21.3462 10.1775 22.6118C9.31571 24.0046 8.58113 25.5167 8.05803 26.9779C7.58262 28.4216 7.31392 29.657 7.24396 30.7414C7.19785 31.4871 7.14856 32.3886 7.10245 33.2488C7.07065 33.8132 7.04203 34.3602 7.01341 34.8356V51.1981H15.302L15.5262 47.9624C15.5898 47.5188 15.6534 47.0021 15.7233 46.4551C16.0127 44.1529 16.372 41.2893 17.0223 39.5928C18.2037 36.2729 20.2166 33.1597 23.0007 30.3518C24.9707 28.2514 27.2507 26.5343 29.7676 25.2591C33.0971 23.5737 36.5616 22.7183 40.0675 22.7183H66.5328L66.6664 37.2523Z" fill="#9FE870"/>
</g>
<path d="M104.032 66.1359C97.3866 66.1359 92.3621 63.0564 89.5257 57.5457V64.9203H83.2046V8.19211H90.1741V30.3972C93.0915 25.6158 97.8729 23.0225 104.032 23.0225C114.972 23.0225 122.266 31.4507 122.266 44.5792C122.266 57.7077 114.972 66.1359 104.032 66.1359ZM102.816 59.9769C110.353 59.9769 115.053 53.8988 115.053 44.5792C115.053 35.2596 110.353 29.1816 102.816 29.1816C95.1986 29.1816 90.012 35.2596 90.012 44.5792C90.012 53.8988 95.1986 59.9769 102.816 59.9769Z" fill="white"/>
<path d="M128.948 64.9203V24.2381H135.918V64.9203H128.948ZM132.433 15.3237C129.839 15.3237 127.895 13.5408 127.895 11.0285C127.895 8.59731 129.839 6.65234 132.433 6.65234C134.945 6.65234 136.89 8.59731 136.89 11.0285C136.89 13.5408 134.945 15.3237 132.433 15.3237Z" fill="white"/>
<path d="M160.913 64.9203C152.647 64.9203 148.676 60.5442 148.676 53.3316V30.3972H141.301V24.2381H145.758C147.865 24.2381 149 23.1035 149 20.9965V11.4337H155.483V24.2381H163.749V30.3972H155.564V56.3301C155.564 58.1129 156.293 58.7613 158.076 58.7613H164.965V64.9203H160.913Z" fill="white"/>
<path d="M188.152 81.1284C176.24 81.1284 170.405 73.5106 169.594 65.8928H176.158C177.131 71.3225 180.778 75.3745 188.152 75.3745C195.932 75.3745 200.633 70.6742 200.633 62.4891V56.249C197.715 60.8683 192.934 63.3806 186.775 63.3806C175.915 63.3806 168.703 55.4386 168.703 43.2015C168.703 31.0455 175.915 23.0225 186.775 23.0225C193.339 23.0225 198.282 25.8589 201.119 30.9644V24.2381H207.035V61.1114C207.035 73.2675 200.227 81.1284 188.152 81.1284ZM187.747 57.6267C195.365 57.6267 200.633 51.8728 200.633 43.2015C200.633 34.5302 195.365 28.8574 187.747 28.8574C180.129 28.8574 175.348 34.5302 175.348 43.2015C175.348 51.8728 180.129 57.6267 187.747 57.6267Z" fill="white"/>
<path d="M215.526 32.018C215.526 26.9935 218.282 24.2381 223.063 24.2381H235.867V30.3972H222.496V64.9203H215.526V32.018Z" fill="white"/>
<path d="M251.658 66.1359C242.744 66.1359 237.557 60.7873 237.557 53.5747C237.557 46.4431 242.501 41.9859 251.982 41.3376L262.356 40.6082C264.301 40.4462 265.273 39.6358 265.273 36.9614C265.273 31.2076 260.978 29.0195 255.71 29.0195C249.713 29.0195 246.148 31.8559 245.499 36.9614H238.692C239.907 27.7228 246.067 23.0225 255.872 23.0225C266.002 23.0225 272.405 28.047 272.405 39.4737V58.7613H275.646V64.9203H272.648C268.596 64.9203 266.246 62.4081 266.246 57.7888V57.2215C263.814 62.8943 258.628 66.1359 251.658 66.1359ZM252.631 60.22C260.005 60.22 265.516 55.1955 265.516 47.0104V45.6327L252.874 46.4431C246.958 46.8483 244.689 49.1985 244.689 53.2505C244.689 58.0319 247.768 60.22 252.631 60.22Z" fill="white"/>
<path d="M301.462 41.9049C309.404 43.3636 313.78 47.2535 313.78 53.7368C313.78 61.2735 307.459 66.1359 297.329 66.1359C286.226 66.1359 279.5 60.3821 279.257 51.7918H285.74C286.389 56.8163 289.954 60.22 297.248 60.22C303.083 60.22 306.73 57.9509 306.73 53.5747C306.73 50.252 304.542 48.5502 299.598 47.6587L293.439 46.6052C284.849 45.1465 280.473 41.4997 280.473 35.2596C280.473 28.2901 286.064 23.0225 295.951 23.0225C305.595 23.0225 311.916 28.128 312.483 36.5562H305.757C305.271 31.9369 301.948 28.8574 295.789 28.8574C290.116 28.8574 287.442 31.4507 287.442 34.9354C287.442 38.0149 289.468 39.7978 295.141 40.7703L301.462 41.9049Z" fill="white"/>
<path d="M339.766 41.9049C347.708 43.3636 352.084 47.2535 352.084 53.7368C352.084 61.2735 345.763 66.1359 335.633 66.1359C324.531 66.1359 317.804 60.3821 317.561 51.7918H324.044C324.693 56.8163 328.258 60.22 335.552 60.22C341.387 60.22 345.034 57.9509 345.034 53.5747C345.034 50.252 342.846 48.5502 337.902 47.6587L331.743 46.6052C323.153 45.1465 318.777 41.4997 318.777 35.2596C318.777 28.2901 324.369 23.0225 334.255 23.0225C343.899 23.0225 350.22 28.128 350.788 36.5562H344.061C343.575 31.9369 340.252 28.8574 334.093 28.8574C328.421 28.8574 325.746 31.4507 325.746 34.9354C325.746 38.0149 327.772 39.7978 333.445 40.7703L339.766 41.9049Z" fill="white"/>
<defs>
<clipPath id="clip0_188_5147">
<rect width="66.6664" height="66.7951" fill="white" transform="translate(0 7.19531)"/>
</clipPath>
</defs>
</svg>
