<svg width="40" height="40" viewBox="0 0 40 40" fill="none" xmlns="http://www.w3.org/2000/svg">
<rect width="40" height="40" rx="20" fill="#0C382B"/>
<path d="M7.00391 19.3682C7.00391 26.299 12.8215 31.9174 19.9981 31.9174C19.9981 24.9866 14.1805 19.3682 7.00391 19.3682Z" fill="url(#paint0_linear_329_8361)"/>
<path d="M7.33008 19.6934C14.0757 19.8576 19.4949 25.1034 19.6709 31.5918C12.9256 31.427 7.50583 26.1816 7.33008 19.6934Z" stroke="url(#paint1_linear_329_8361)" stroke-opacity="0.5" stroke-width="0.643839"/>
<path d="M33.0039 19.3682C25.8274 19.3682 20.0098 24.9866 20.0098 31.9174C27.1863 31.9174 33.0039 26.299 33.0039 19.3682Z" fill="url(#paint2_linear_329_8361)"/>
<path d="M32.6758 19.6943C32.4995 26.1824 27.0813 31.4275 20.3359 31.5918C20.5119 25.104 25.9311 19.8596 32.6758 19.6943Z" stroke="url(#paint3_linear_329_8361)" stroke-opacity="0.5" stroke-width="0.643839"/>
<path d="M20.0039 8.3999C18.4636 11.4804 16.0844 13.8596 13.0039 15.3999C16.0844 16.9402 18.4636 19.3194 20.0039 22.3999C21.5442 19.3194 23.9234 16.9402 27.0039 15.3999C23.9234 13.8596 21.5442 11.4804 20.0039 8.3999Z" fill="url(#paint4_linear_329_8361)"/>
<path d="M20.0039 8.90088C21.4992 11.7023 23.7006 13.9045 26.502 15.3999C23.7009 16.8952 21.4992 19.0969 20.0039 21.8979C18.5085 19.0966 16.3063 16.8952 13.5049 15.3999C16.3066 13.9045 18.5085 11.7026 20.0039 8.90088Z" stroke="url(#paint5_linear_329_8361)" stroke-opacity="0.5" stroke-width="0.466667"/>
<defs>
<linearGradient id="paint0_linear_329_8361" x1="13.501" y1="19.3682" x2="13.501" y2="31.9174" gradientUnits="userSpaceOnUse">
<stop offset="0.144231" stop-color="#68F8F8"/>
<stop offset="1" stop-color="#23B7E5"/>
</linearGradient>
<linearGradient id="paint1_linear_329_8361" x1="13.501" y1="9.44085" x2="13.501" y2="32.2083" gradientUnits="userSpaceOnUse">
<stop stop-color="white"/>
<stop offset="1" stop-color="white" stop-opacity="0"/>
</linearGradient>
<linearGradient id="paint2_linear_329_8361" x1="26.5068" y1="19.3682" x2="26.5068" y2="31.9174" gradientUnits="userSpaceOnUse">
<stop offset="0.144231" stop-color="#68F8F8"/>
<stop offset="1" stop-color="#23B7E5"/>
</linearGradient>
<linearGradient id="paint3_linear_329_8361" x1="26.5068" y1="9.44085" x2="26.5068" y2="32.2083" gradientUnits="userSpaceOnUse">
<stop stop-color="white"/>
<stop offset="1" stop-color="white" stop-opacity="0"/>
</linearGradient>
<linearGradient id="paint4_linear_329_8361" x1="20.0039" y1="8.3999" x2="20.0039" y2="22.3999" gradientUnits="userSpaceOnUse">
<stop stop-color="#7DFFFF"/>
<stop offset="0.855769" stop-color="#23B7E5"/>
</linearGradient>
<linearGradient id="paint5_linear_329_8361" x1="20.0039" y1="-2.67509" x2="20.0039" y2="22.7245" gradientUnits="userSpaceOnUse">
<stop stop-color="white"/>
<stop offset="1" stop-color="white" stop-opacity="0"/>
</linearGradient>
</defs>
</svg>
