<svg width="38" height="38" viewBox="0 0 38 38" fill="none" xmlns="http://www.w3.org/2000/svg">
<circle cx="19" cy="19" r="19" fill="#8C9097"/>
<path d="M19.3089 29.6272C19.3089 23.2515 14.1403 18.083 7.76465 18.083C7.76465 24.4587 12.9332 29.6272 19.3089 29.6272Z" fill="#EBEBEB"/>
<path d="M19.3089 29.6272C19.3089 23.2515 24.4771 18.0831 30.8528 18.0831C30.8528 24.4588 25.6846 29.6272 19.3089 29.6272Z" fill="#EBEBEB"/>
<path fill-rule="evenodd" clip-rule="evenodd" d="M19.4043 8.00049C22.4705 8.00049 24.9559 10.4861 24.9561 13.5522C24.9561 16.6186 22.4706 19.104 19.4043 19.104C16.3381 19.104 13.8525 16.6185 13.8525 13.5522C13.8527 10.4861 16.3382 8.00061 19.4043 8.00049ZM19.4043 10.7759C17.8711 10.7759 16.6279 12.0191 16.6279 13.5522C16.6281 15.0852 17.8713 16.3276 19.4043 16.3276C20.9372 16.3274 22.1795 15.0851 22.1797 13.5522C22.1797 12.0192 20.9373 10.7761 19.4043 10.7759Z" fill="#CBD0D9"/>
</svg>
