<svg width="17" height="16" viewBox="0 0 17 16" fill="none" xmlns="http://www.w3.org/2000/svg">
<path d="M8.16 15.54L7.27 15.46C3.51 15.13 0.49 12.17 0.09 8.42004L0 7.54004L0.89 7.62004C4.65 7.95004 7.67 10.91 8.07 14.66L8.16 15.54ZM1.73 9.24004C2.33 11.51 4.14 13.29 6.43 13.85C5.83 11.58 4.02 9.80004 1.73 9.24004ZM8.36 15.54L8.45 14.66C8.85 10.89 11.88 7.93004 15.66 7.62004L16.54 7.55004L16.45 8.43004C16.05 12.2 13.02 15.16 9.24 15.47L8.36 15.54ZM14.81 9.23004C12.51 9.78004 10.68 11.56 10.08 13.85C12.38 13.3 14.21 11.52 14.81 9.23004Z" fill="#536485"/>
<path d="M8.27033 9.34C7.94033 9.34 7.64033 9.21 7.40033 8.98L3.95033 5.54C3.47033 5.06 3.47033 4.29 3.95033 3.81L7.40033 0.36C7.88033 -0.12 8.65033 -0.12 9.13033 0.36L12.5803 3.81C12.8103 4.04 12.9403 4.35 12.9403 4.68C12.9403 5.01 12.8103 5.31 12.5803 5.55L9.14033 8.99C8.91033 9.22 8.60033 9.35 8.27033 9.35V9.34ZM5.16033 4.67L8.27033 7.78L11.3803 4.67L8.27033 1.56L5.16033 4.67Z" fill="#536485"/>
</svg>
