<svg width="21" height="21" viewBox="0 0 21 21" fill="none" xmlns="http://www.w3.org/2000/svg">
<rect x="0.457092" y="0.330078" width="20" height="20" rx="10" fill="#B9E97D"/>
<path d="M15.9685 5.33141C15.962 5.22015 15.9149 5.11514 15.8361 5.03633C15.7573 4.95752 15.6523 4.91039 15.541 4.90389C11.2129 4.64977 7.74616 5.9528 6.26803 8.3974C5.75567 9.23363 5.50319 10.2032 5.54261 11.1831C5.56834 11.8097 5.69584 12.428 5.9201 13.0137C5.93328 13.0498 5.95536 13.0819 5.9843 13.1071C6.01324 13.1323 6.04808 13.1498 6.08559 13.1579C6.12311 13.166 6.16206 13.1645 6.19883 13.1535C6.2356 13.1425 6.26899 13.1224 6.29589 13.095L11.1282 8.18875C11.1705 8.1465 11.2207 8.11298 11.2759 8.09011C11.3311 8.06724 11.3903 8.05547 11.45 8.05547C11.5098 8.05547 11.5689 8.06724 11.6242 8.09011C11.6794 8.11298 11.7295 8.1465 11.7718 8.18875C11.814 8.23101 11.8476 8.28118 11.8704 8.33639C11.8933 8.3916 11.9051 8.45077 11.9051 8.51053C11.9051 8.57029 11.8933 8.62947 11.8704 8.68468C11.8476 8.73989 11.814 8.79005 11.7718 8.83231L6.49089 14.1928L5.68417 14.9995C5.60027 15.0812 5.55018 15.1915 5.54386 15.3084C5.53754 15.4253 5.57545 15.5403 5.65006 15.6306C5.69091 15.6779 5.74109 15.7163 5.79744 15.7433C5.8538 15.7704 5.91512 15.7855 5.97759 15.7878C6.04007 15.7901 6.10234 15.7795 6.16053 15.7567C6.21871 15.7338 6.27157 15.6992 6.31578 15.655L7.27032 14.7005C8.07419 15.0894 8.88546 15.3014 9.6899 15.3298C9.7532 15.3321 9.8163 15.3332 9.87922 15.3332C10.7953 15.3356 11.694 15.0833 12.475 14.6044C14.9196 13.1263 16.2232 9.66006 15.9685 5.33141Z" fill="#0C382B"/>
</svg>
