<svg width="27" height="26" viewBox="0 0 27 26" fill="none" xmlns="http://www.w3.org/2000/svg">
<rect x="0.5" width="26" height="26" rx="13" fill="#B9E97D"/>
<path d="M19.7794 7.35285C19.772 7.22715 19.7188 7.10852 19.6298 7.01949C19.5407 6.93045 19.4221 6.87721 19.2964 6.86987C14.4069 6.58278 10.4905 8.05483 8.82062 10.8165C8.2418 11.7612 7.95657 12.8565 8.0011 13.9636C8.03017 14.6715 8.17421 15.3699 8.42756 16.0316C8.44245 16.0723 8.4674 16.1086 8.50009 16.1371C8.53278 16.1656 8.57215 16.1853 8.61452 16.1945C8.6569 16.2037 8.70091 16.202 8.74244 16.1895C8.78398 16.1771 8.8217 16.1544 8.85209 16.1235L14.3112 10.5808C14.359 10.5331 14.4157 10.4952 14.478 10.4694C14.5404 10.4435 14.6072 10.4302 14.6748 10.4302C14.7423 10.4302 14.8091 10.4435 14.8715 10.4694C14.9339 10.4952 14.9905 10.5331 15.0383 10.5808C15.086 10.6285 15.1239 10.6852 15.1497 10.7476C15.1755 10.81 15.1888 10.8768 15.1888 10.9443C15.1888 11.0118 15.1755 11.0787 15.1497 11.1411C15.1239 11.2034 15.086 11.2601 15.0383 11.3078L9.07238 17.3636L8.16103 18.275C8.06625 18.3673 8.00966 18.4918 8.00252 18.6239C7.99538 18.756 8.03821 18.886 8.12249 18.9879C8.16865 19.0414 8.22533 19.0847 8.28899 19.1153C8.35266 19.1459 8.42194 19.163 8.49251 19.1656C8.56309 19.1681 8.63344 19.1562 8.69917 19.1303C8.76491 19.1045 8.82462 19.0654 8.87457 19.0155L9.95291 17.9372C10.8611 18.3765 11.7776 18.616 12.6863 18.6482C12.7578 18.6507 12.8291 18.652 12.9002 18.652C13.9351 18.6547 14.9504 18.3696 15.8327 17.8286C18.5944 16.1588 20.0671 12.243 19.7794 7.35285Z" fill="#0C382B"/>
</svg>
