<svg width="17" height="17" viewBox="0 0 17 17" fill="none" xmlns="http://www.w3.org/2000/svg">
<path d="M5.53369 11.9336L8.20036 14.6003L10.867 11.9336" stroke="#7FC447" stroke-opacity="0.9" stroke-width="1.33333" stroke-linecap="round" stroke-linejoin="round"/>
<path d="M8.2002 8.6001V14.6001" stroke="#7FC447" stroke-opacity="0.9" stroke-width="1.33333" stroke-linecap="round" stroke-linejoin="round"/>
<path d="M14.1202 12.6601C14.6997 12.2525 15.1344 11.6708 15.361 10.9995C15.5876 10.3281 15.5944 9.60207 15.3804 8.9266C15.1664 8.25114 14.7427 7.66145 14.1709 7.24309C13.599 6.82474 12.9087 6.5995 12.2002 6.60005H11.3602C11.1596 5.81864 10.7845 5.09288 10.2629 4.47744C9.74132 3.86199 9.08692 3.37289 8.34896 3.04696C7.611 2.72102 6.80871 2.56674 6.0025 2.59573C5.19629 2.62472 4.40716 2.83623 3.69452 3.21434C2.98188 3.59244 2.3643 4.12729 1.88828 4.77861C1.41225 5.42993 1.09019 6.18075 0.946325 6.97455C0.802464 7.76836 0.840557 8.58445 1.05774 9.3614C1.27492 10.1383 1.66552 10.8559 2.20015 11.4601" stroke="#7FC447" stroke-opacity="0.9" stroke-width="1.33333" stroke-linecap="round" stroke-linejoin="round"/>
</svg>
